<svg xmlns="http://www.w3.org/2000/svg" viewBox="0 0 64 64" role="img" aria-labelledby="title">
  <title id="title">Strata fault fold simulator</title>
  <defs>
    <clipPath id="cut">
      <rect x="6" y="6" width="52" height="52" rx="12"/>
    </clipPath>
  </defs>
  <rect width="64" height="64" rx="14" fill="#172033"/>
  <g clip-path="url(#cut)">
    <rect x="6" y="6" width="52" height="52" fill="#eef7fb"/>
    <path d="M-3 17 C8 10 16 10 27 17 C38 24 48 24 67 13 V25 C50 36 38 34 27 27 C16 20 8 21 -3 29Z" fill="#d4a96a"/>
    <path d="M-3 29 C8 21 16 20 27 27 C38 34 50 36 67 25 V35 C50 45 38 43 27 37 C16 31 8 31 -3 38Z" fill="#7a8fa6"/>
    <path d="M-3 38 C8 31 16 31 27 37 C38 43 50 45 67 35 V45 C50 54 38 52 27 47 C16 42 8 42 -3 48Z" fill="#c8c0a8"/>
    <path d="M-3 48 C8 42 16 42 27 47 C38 52 50 54 67 45 V67 H-3Z" fill="#d08080"/>
    <path d="M-3 28 C8 20 16 19 27 26 C38 33 50 35 67 24" fill="none" stroke="#233044" stroke-width="1.4" opacity=".5"/>
    <path d="M-3 37 C8 30 16 30 27 36 C38 42 50 44 67 34" fill="none" stroke="#233044" stroke-width="1.4" opacity=".5"/>
    <path d="M-3 47 C8 41 16 41 27 46 C38 51 50 53 67 44" fill="none" stroke="#233044" stroke-width="1.4" opacity=".5"/>
    <path d="M39 3 L20 61" fill="none" stroke="#ffffff" stroke-width="8" stroke-linecap="round"/>
    <path d="M39 3 L20 61" fill="none" stroke="#e11d48" stroke-width="4" stroke-linecap="round"/>
    <path d="M40 18 L47 24 M27 39 L20 33" fill="none" stroke="#ffffff" stroke-width="4.5" stroke-linecap="round" stroke-linejoin="round"/>
    <path d="M40 18 L47 24 M27 39 L20 33" fill="none" stroke="#e11d48" stroke-width="2.5" stroke-linecap="round" stroke-linejoin="round"/>
  </g>
  <rect x="6" y="6" width="52" height="52" rx="12" fill="none" stroke="#0f172a" stroke-width="3"/>
</svg>
